<svg xmlns="http://www.w3.org/2000/svg" width="520" height="520" viewBox="0 0 520 520" fill="none" stroke="#7f8b96" stroke-width="2.2" stroke-linecap="round" stroke-linejoin="round">
  <!-- sun -->
  <g transform="translate(130,120)">
    <circle cx="0" cy="0" r="20"/>
    <path d="M0 -30 L0 -40 M0 30 L0 40 M-30 0 L-40 0 M30 0 L40 0 M-22 -22 L-29 -29 M22 22 L29 29 M-22 22 L-29 29 M22 -22 L29 -29"/>
  </g>
  <!-- beach umbrella + waves -->
  <g transform="translate(400,170) rotate(8)">
    <path d="M-38 0 C -26 -28, 26 -28, 38 0 C 25 -7, 13 -7, 0 0 C -13 -7, -25 -7, -38 0 Z"/>
    <path d="M0 -22 L0 -32 M0 0 L8 52"/>
    <path d="M-52 62 C -42 54, -32 54, -22 62 C -12 70, -2 70, 8 62 C 18 54, 28 54, 38 62" stroke-dasharray="none"/>
  </g>
  <!-- ice cream cone -->
  <g transform="translate(180,420)">
    <path d="M-14 0 L0 36 L14 0"/>
    <path d="M-9 -4 L9 -4 M-12 4 L12 4" stroke-width="1.6"/>
    <circle cx="-7" cy="-12" r="10"/><circle cx="8" cy="-14" r="10"/><circle cx="0" cy="-24" r="10"/>
  </g>
  <!-- sunglasses -->
  <g transform="translate(380,400)">
    <circle cx="-16" cy="0" r="12"/><circle cx="16" cy="0" r="12"/>
    <path d="M-4 0 C -2 -6, 2 -6, 4 0 M-28 -4 L-38 -10 M28 -4 L38 -10"/>
  </g>
</svg>
