<svg xmlns="http://www.w3.org/2000/svg" width="520" height="520" viewBox="0 0 520 520" fill="none" stroke="#7f8b96" stroke-width="2.2" stroke-linecap="round" stroke-linejoin="round">
  <!-- blossom branch -->
  <g transform="translate(140,120)">
    <path d="M-48 30 C -16 10, 18 -6, 52 -28"/>
    <path d="M-14 14 C -8 4, 2 2, 8 8"/>
    <circle cx="-26" cy="18" r="7"/><circle cx="6" cy="0" r="7"/><circle cx="36" cy="-18" r="7"/>
    <circle cx="-26" cy="18" r="2"/><circle cx="6" cy="0" r="2"/><circle cx="36" cy="-18" r="2"/>
  </g>
  <!-- tulip -->
  <g transform="translate(420,180)">
    <path d="M-14 -18 C -14 -34, 14 -34, 14 -18 L14 -8 C 8 2, -8 2, -14 -8 Z"/>
    <path d="M-7 -22 L-7 -8 M7 -22 L7 -8"/>
    <path d="M0 2 L0 40 M0 22 C -10 16, -16 18, -20 28"/>
  </g>
  <!-- umbrella with rain -->
  <g transform="translate(280,420)">
    <path d="M-36 -6 C -24 -30, 24 -30, 36 -6 C 24 -12, 12 -12, 0 -6 C -12 -12, -24 -12, -36 -6 Z"/>
    <path d="M0 -26 L0 -34 M0 -6 L0 26 C 0 34, 10 34, 10 28"/>
    <path d="M-44 14 L-48 24 M48 0 L44 10 M-16 36 L-20 46"/>
  </g>
  <!-- sprout -->
  <g transform="translate(110,400)">
    <path d="M0 22 L0 -2 C 0 -14, 10 -22, 20 -22 C 20 -10, 12 -2, 0 -2 C 0 -14, -10 -22, -20 -22 C -20 -10, -12 -2, 0 -2"/>
  </g>
</svg>
